<svg xmlns="http://www.w3.org/2000/svg" width="86" height="86.21" viewBox="0 0 86 86.21"><defs><style>.cls-1{fill:none;stroke:#fff;stroke-width:3px;}</style></defs><g id="instagram"><ellipse cx="43" cy="43.11" rx="43" ry="43.11"/><g id="bxl-instagram-alt"><path id="Path_4" data-name="Path 4" class="cls-1" d="M62,35.26a13.81,13.81,0,0,0-.89-4.71A9.8,9.8,0,0,0,55.52,25a14.21,14.21,0,0,0-4.64-.9C48.83,24,48.18,24,43,24s-5.86,0-7.89.11a14.21,14.21,0,0,0-4.64.9,9.77,9.77,0,0,0-5.59,5.59A13.85,13.85,0,0,0,24,35.19c-.09,2.05-.12,2.69-.12,7.88s0,5.85.12,7.88a14,14,0,0,0,.89,4.65,9.79,9.79,0,0,0,5.6,5.59,14.18,14.18,0,0,0,4.64,1c2,.09,2.69.11,7.88.11s5.85,0,7.88-.11a14.47,14.47,0,0,0,4.65-.89,9.84,9.84,0,0,0,5.59-5.6A13.9,13.9,0,0,0,62,51c.09-2.05.12-2.69.12-7.88s0-5.85-.13-7.88Zm-8.8-.09a2.29,2.29,0,1,1,2.28-2.29h0a2.27,2.27,0,0,1-2.28,2.29Z"/><path id="Path_5" data-name="Path 5" class="cls-1" d="M50.14,43.11A7.14,7.14,0,1,1,43,36h0A7.14,7.14,0,0,1,50.14,43.11Z"/></g></g></svg>