<svg xmlns="http://www.w3.org/2000/svg" width="43" height="43" viewBox="0 0 43 43"><defs><style>.cls-1{fill:#fff;}</style></defs><g id="linkedin"><circle cx="21.5" cy="21.5" r="21.5"/><path id="Icon_awesome-linkedin-in" data-name="Icon awesome-linkedin-in" class="cls-1" d="M16,31.47H11.86V18.16H16ZM13.93,16.34a2.41,2.41,0,1,1,2.4-2.42h0A2.42,2.42,0,0,1,13.93,16.34ZM31.48,31.47H27.35V25c0-1.55,0-3.53-2.15-3.53s-2.48,1.68-2.48,3.42v6.59H18.59V18.16h4V20h.06a4.35,4.35,0,0,1,3.91-2.15c4.19,0,5,2.75,5,6.33v7.32Z"/></g></svg>