<svg xmlns="http://www.w3.org/2000/svg" width="139.19" height="114.26" viewBox="0 0 139.19 114.26"><g id="logo2"><path d="M63,26.91c10.24,8.81,12.45,22.64,12.4,35.49a129.94,129.94,0,0,1-8.94,46.26c-1.47,3.83,3.45,6.87,6.61,5.08C86,106.42,95.5,95.88,102.93,83.14c7.1-12.16,15.48-29,31.91-28.72,5.8.11,5.8-8.89,0-9C119.25,45.13,108.1,57,100.55,69.33c-4.35,7.12-8,14.72-13.36,21.18A66.69,66.69,0,0,1,68.52,106l6.61,5.08a135.13,135.13,0,0,0,9.23-51.8c-.37-14.14-3.86-29.12-15-38.7C65,16.79,58.59,23.13,63,26.91Z"/><path d="M59.33,93.11c5.79,0,5.8-9,0-9s-5.8,9,0,9Z"/><path d="M7.65,1.21A23.23,23.23,0,0,0,0,18.61c.08,8,5.65,12.55,7.5,19.81C11.23,53.1-1.24,67.75,4.44,82.29c4.93,12.63,20.5,13.55,29.23,4.5,3.9-4,6.73-10.51,12-12.91,5.81-2.63,12.35-1,16.79-6.57,3.57-4.49-2.75-10.9-6.36-6.37-2.9,3.65-9.2,2.82-13.29,4.44-4.34,1.72-7.48,5-10.32,8.57s-5.79,8.83-10.51,10c-6.43,1.54-10-4.4-10-10-.08-11.85,6.47-22.64,4.75-34.77-.87-6.13-4.32-10-6.67-15.4C7.6,18,9.52,11.66,14,7.58c4.3-3.9-2.08-10.25-6.36-6.37Z"/></g></svg>