<svg xmlns="http://www.w3.org/2000/svg" width="84.11" height="74.58" viewBox="0 0 84.11 74.58"><defs><style>.cls-1{fill:#fff;}</style></defs><g id="logoblacknwhite"><ellipse cx="37.2" cy="37.29" rx="37.2" ry="37.29"/><path class="cls-1" d="M38.23,16.79c12.66,11.23,7.13,34.77,2,48.33-1,2.54,2.29,4.6,4.41,3.38a46.08,46.08,0,0,0,15.85-15C65,46.6,68,38.71,75.53,34.48c3.37-1.88.35-7.07-3-5.18-6.42,3.6-10.24,9.31-13.84,15.55-4.45,7.71-9.23,13.95-17.07,18.47L46,66.71C52,51,56.89,25.34,42.48,12.55c-2.88-2.55-7.14,1.68-4.25,4.24Z"/><path class="cls-1" d="M37.2,59c3.86,0,3.87-6,0-6s-3.87,6,0,6Z"/><path class="cls-1" d="M6,13c-.08,4.48,2.2,7.1,3.35,11.19,1.35,4.78-.8,9.88-2.23,14.38C5.23,44.52,3.7,52,9.58,56.37,14.89,60.3,20.86,58,25,53.74c3-3.08,4.7-5.54,9.22-6.11,2.93-.37,5.24-.76,7.43-2.89,2.77-2.69-1.48-6.93-4.25-4.24-1.86,1.81-5.3,1.08-7.65,1.77a12.56,12.56,0,0,0-4.55,2.58c-2,1.66-3.4,3.87-5.34,5.56-3.43,3-8.18,2.5-8.55-3.07s3.48-11.62,4.2-17.27a19,19,0,0,0-.38-7.51C14.19,19.15,12,16.7,12,13S6.08,9.1,6,13Z"/></g></svg>